<?xml version="1.0" standalone="no"?>
<!DOCTYPE svg PUBLIC "-//W3C//DTD SVG 20010904//EN"
 "http://www.w3.org/TR/2001/REC-SVG-20010904/DTD/svg10.dtd">
<svg version="1.0" xmlns="http://www.w3.org/2000/svg"
 width="528.000000pt" height="180.000000pt">

<g transform="translate(0.000000,300.000000) scale(0.100000,-0.100000)"
fill="#000000" stroke="none">
<path d="M3907 2961 c-30 -18 -86 -73 -154 -152 -109 -127 -235 -270 -285
-325 l-28 -30 35 -41 c19 -23 35 -44 35 -47 0 -3 -17 -14 -38 -25 l-37 -19
-35 30 c-19 17 -55 49 -80 72 -25 23 -87 79 -137 125 l-93 83 -42 -22 c-24
-12 -54 -32 -67 -43 l-24 -22 6 38 c3 20 3 37 0 37 -4 0 -131 -39 -282 -86
-259 -81 -362 -121 -378 -148 -8 -12 -6 -106 3 -224 7 -81 -1 -75 79 -56 23 6
25 3 25 -27 l0 -34 -47 3 c-63 5 -173 -21 -244 -58 l-58 -29 6 62 c22 235
-172 457 -442 504 -108 18 -310 13 -425 -12 -149 -33 -363 -125 -512 -220 -68
-44 -85 -58 -131 -112 -21 -24 -31 -3 166 -337 42 -71 78 -133 79 -138 2 -5
27 1 56 13 29 12 54 20 56 18 2 -2 35 -76 73 -164 38 -88 136 -313 218 -501
l149 -341 90 30 c50 16 140 44 200 63 101 32 174 65 219 99 18 13 17 20 -21
167 -22 84 -39 154 -38 155 2 2 20 -19 42 -46 75 -94 177 -141 304 -141 112 0
201 32 316 115 21 15 21 14 27 -56 3 -39 8 -74 11 -76 3 -3 90 6 193 21 144
20 202 33 246 53 l57 27 0 121 c0 67 3 124 6 128 4 3 169 -75 367 -175 l361
-180 53 27 53 28 0 171 0 171 50 12 c28 7 79 26 113 42 34 16 63 28 65 26 2
-2 -3 -43 -12 -91 -8 -49 -14 -89 -13 -90 1 -1 102 -18 225 -38 l222 -36 38
20 c20 11 39 20 42 20 3 0 22 -29 41 -65 18 -36 39 -65 44 -65 6 1 19 7 29 15
29 22 34 19 41 -28 l7 -44 101 -18 c56 -10 169 -30 252 -45 l149 -28 54 26 53
27 -7 67 -7 68 34 0 c19 1 52 7 74 15 21 8 40 13 41 12 0 -1 -3 -39 -9 -85 -5
-45 -8 -85 -5 -87 2 -3 69 -14 149 -25 210 -30 189 -19 189 -100 0 -39 2 -70
4 -70 3 0 82 -25 177 -55 l172 -55 53 31 c50 28 55 35 73 92 10 34 114 345
230 691 117 346 210 630 209 631 -2 1 -109 27 -239 59 -227 56 -238 57 -267
42 -42 -22 -52 -20 -52 9 0 18 -7 26 -27 31 -15 4 -142 33 -282 64 l-256 57
-54 -27 -53 -26 1 -141 2 -141 -56 -7 c-67 -8 -154 -36 -200 -65 -18 -11 -35
-17 -38 -13 -3 4 -22 124 -43 265 l-39 258 -192 0 -192 0 -51 -30 c-50 -30
-52 -30 -201 -30 -139 0 -153 -2 -198 -25 -51 -25 -51 -25 -67 -117 l-6 -38
-37 29 c-67 53 -154 89 -245 100 l-51 7 85 46 c47 25 119 64 160 87 41 22 74
46 72 52 -6 24 -217 338 -227 338 -5 0 -31 -13 -58 -28z m101 -212 c44 -61 49
-73 37 -85 -7 -8 -82 -48 -167 -89 -132 -64 -155 -73 -167 -60 -12 12 -8 21
30 67 114 138 201 238 208 238 4 0 31 -32 59 -71z m1017 -313 c3 -11 21 -123
40 -248 l34 -226 -43 -66 c-60 -88 -81 -159 -80 -271 0 -80 3 -98 32 -158 34
-73 108 -155 160 -176 27 -11 52 -55 38 -68 -4 -4 -207 22 -251 33 -19 5 -24
26 -54 242 -19 130 -37 241 -41 245 -4 4 -20 -27 -35 -70 -16 -43 -39 -100
-51 -128 l-22 -50 -42 90 c-24 50 -58 124 -77 165 -35 73 -36 74 -44 46 -4
-16 -21 -105 -36 -197 l-27 -168 -26 4 c-95 15 -225 38 -228 40 -1 1 5 49 15
106 l17 104 60 63 61 64 -43 37 -43 36 36 210 c19 116 41 234 47 263 l11 52
128 0 c123 0 127 -1 132 -22 3 -13 18 -94 33 -180 15 -87 30 -155 33 -152 3 3
20 84 37 180 46 249 33 223 112 226 91 4 111 0 117 -26z m-2174 -74 c1 -48 4
-125 7 -172 l7 -85 94 130 c52 72 110 151 130 178 l35 47 86 -83 c47 -46 101
-98 120 -115 l35 -31 -46 -48 c-25 -27 -97 -101 -160 -167 -63 -65 -120 -124
-126 -132 -7 -7 -13 -15 -13 -17 0 -3 71 -33 158 -68 141 -56 192 -86 192
-110 0 -5 24 -32 54 -62 62 -62 154 -110 244 -128 l62 -13 0 -108 c0 -59 -4
-108 -8 -108 -9 0 -753 373 -788 396 -12 7 -24 10 -28 7 -3 -4 -6 -100 -6
-214 l0 -208 -37 -10 c-21 -5 -68 -13 -104 -16 l-66 -7 -7 84 c-6 77 -5 89 18
139 72 155 57 336 -37 454 -31 39 -32 44 -44 190 -6 82 -12 165 -12 184 -1 36
5 35 -77 15 -24 -6 -25 -5 -22 37 2 36 7 44 28 50 14 4 86 25 160 47 74 22
138 38 143 35 4 -2 7 -43 8 -91z m-1284 58 c161 -22 326 -137 367 -256 29 -84
17 -205 -28 -292 -55 -107 -156 -221 -258 -290 -43 -30 -46 -34 -38 -60 10
-31 130 -498 130 -505 0 -3 -8 -7 -17 -10 -10 -3 -60 -19 -111 -36 l-94 -29
-15 36 c-17 41 -186 425 -226 512 -14 30 -66 150 -117 265 -51 116 -96 214
-101 220 -6 6 -29 -1 -63 -18 l-55 -26 -49 82 c-75 126 -115 198 -111 201 103
76 351 173 501 195 153 23 184 24 285 11z m2411 -88 c60 -19 131 -62 166 -100
18 -21 18 -22 -9 -54 -15 -18 -59 -67 -99 -108 -39 -41 -105 -110 -146 -154
l-75 -79 63 6 c64 5 118 30 176 80 34 30 30 32 138 -68 l62 -58 -46 -42 c-26
-23 -80 -58 -121 -79 -309 -152 -606 -67 -673 194 -21 81 -13 163 22 239 82
182 337 286 542 223z m1917 -42 c82 -17 152 -36 156 -41 3 -6 20 -83 38 -172
18 -89 43 -209 56 -267 13 -58 25 -114 28 -125 6 -29 8 -20 72 245 31 130 60
242 64 249 12 20 267 -39 263 -60 -3 -15 -383 -1162 -387 -1166 -4 -7 -181 51
-187 61 -4 6 -8 115 -9 241 -2 284 -11 482 -21 440 -4 -16 -26 -138 -49 -270
-23 -132 -44 -242 -46 -244 -1 -2 -48 2 -104 9 l-101 12 7 78 c7 76 8 79 55
128 57 59 116 175 131 257 21 114 -13 247 -85 332 -26 31 -26 34 -20 127 l7
95 -37 6 c-36 7 -36 8 -36 57 0 50 0 50 28 45 15 -3 94 -20 177 -37z m-278
-295 c56 -28 92 -64 126 -129 30 -58 30 -191 0 -258 -50 -110 -149 -206 -253
-244 -70 -26 -184 -24 -245 4 -246 113 -220 450 48 606 105 62 224 69 324 21z
m-2322 -67 l7 -68 -49 21 c-26 11 -50 22 -52 25 -3 2 15 24 39 49 24 25 45 44
46 42 1 -1 5 -32 9 -69z m-865 19 c170 -46 255 -208 207 -393 -16 -60 -97
-184 -146 -223 -199 -156 -446 -119 -536 80 -24 54 -27 71 -23 142 6 136 69
247 187 326 108 73 211 96 311 68z"/>
<path  fill='orange' d="M1490 2093 c-25 -9 -46 -17 -47 -18 -2 -1 3 -21 11 -46 24 -74 83
-273 90 -299 13 -53 21 -56 66 -25 23 16 61 50 85 77 152 170 10 385 -205 311z
m137 -132 c19 -31 19 -119 0 -138 -19 -19 -14 -27 -51 89 -13 42 -21 79 -19
82 9 9 59 -15 70 -33z"/>
<path fill='orange' d="M3729 2186 c-55 -19 -107 -64 -119 -102 -27 -79 -10 -171 39 -218
l28 -27 69 77 c38 43 95 107 127 142 32 36 57 72 55 80 -4 22 -87 61 -128 61
-19 0 -51 -6 -71 -13z m74 -94 c3 -4 -23 -40 -58 -79 -35 -40 -66 -69 -68 -65
-22 38 -7 123 26 144 16 10 94 10 100 0z"/>
<path  fill='orange' d="M5365 1940 c-73 -35 -105 -78 -105 -139 0 -105 77 -181 184 -181 76
0 130 31 163 94 18 34 20 115 4 142 -9 17 -10 16 -11 -8 0 -41 -55 -88 -102
-88 -20 0 -48 5 -61 11 -35 16 -60 64 -53 101 6 32 51 82 66 73 5 -3 11 -1 15
5 11 17 -57 11 -100 -10z"/>
<path fill='orange' d="M2262 1868 c-56 -19 -103 -67 -112 -118 -22 -116 57 -210 177 -210
124 0 216 124 170 230 l-15 35 -1 -31 c-1 -43 -58 -94 -105 -94 -43 0 -97 37
-109 74 -13 38 13 89 57 110 l31 16 -30 -1 c-16 -1 -45 -6 -63 -11z"/>
</g>
</svg>
